<svg width="20" height="20" viewBox="0 0 20 20" fill="none" xmlns="http://www.w3.org/2000/svg">
<path d="M15.7917 13.9583L13.1042 11.2708C13.2431 11.0486 13.3507 10.7882 13.4271 10.4896C13.5035 10.191 13.5417 9.88889 13.5417 9.58333C13.5417 8.59722 13.1979 7.76042 12.5104 7.07292C11.8229 6.38542 10.9861 6.04167 10 6.04167C9.69445 6.04167 9.39584 6.07639 9.10417 6.14583C8.8125 6.21528 8.54862 6.32639 8.31251 6.47917L6.02084 4.16667C6.50695 3.94444 7.12848 3.75 7.88542 3.58333C8.64237 3.41667 9.38195 3.33333 10.1042 3.33333C11.9792 3.33333 13.7083 3.84722 15.2917 4.875C16.875 5.90278 18.0833 7.28472 18.9167 9.02083C18.9583 9.09028 18.9861 9.17361 19 9.27083C19.0139 9.36806 19.0208 9.47222 19.0208 9.58333C19.0208 9.69444 19.0139 9.80208 19 9.90625C18.9861 10.0104 18.9583 10.0972 18.9167 10.1667C18.5556 10.9306 18.1111 11.6319 17.5833 12.2708C17.0556 12.9097 16.4583 13.4722 15.7917 13.9583V13.9583ZM16.5417 18.2083L13.5 15.2292C13.0139 15.4236 12.4653 15.5729 11.8542 15.6771C11.2431 15.7813 10.625 15.8333 10 15.8333C8.08334 15.8333 6.32639 15.3194 4.72917 14.2917C3.13195 13.2639 1.91667 11.8819 1.08334 10.1458C1.04167 10.0625 1.01389 9.9757 1.00001 9.88542C0.986116 9.79514 0.979172 9.69444 0.979172 9.58333C0.979172 9.47222 0.989588 9.36458 1.01042 9.26042C1.03126 9.15625 1.05556 9.06945 1.08334 9C1.37501 8.375 1.74653 7.76736 2.19792 7.17708C2.64931 6.58681 3.18056 6.02778 3.79167 5.5L1.60417 3.3125C1.47917 3.1875 1.41667 3.04167 1.41667 2.875C1.41667 2.70833 1.47917 2.5625 1.60417 2.4375C1.72917 2.3125 1.87848 2.25 2.05209 2.25C2.2257 2.25 2.37501 2.3125 2.50001 2.4375L17.4167 17.3542C17.5278 17.4653 17.5833 17.6007 17.5833 17.7604C17.5833 17.9201 17.5278 18.0625 17.4167 18.1875C17.3056 18.3264 17.1632 18.3958 16.9896 18.3958C16.816 18.3958 16.6667 18.3333 16.5417 18.2083V18.2083ZM10 13.125C10.1944 13.125 10.4028 13.1076 10.625 13.0729C10.8472 13.0382 11.0347 12.9861 11.1875 12.9167L6.66667 8.39583C6.59723 8.5625 6.54514 8.75 6.51042 8.95833C6.4757 9.16667 6.45834 9.375 6.45834 9.58333C6.45834 10.5833 6.80556 11.4236 7.5 12.1042C8.19445 12.7847 9.02778 13.125 10 13.125ZM12.1875 10.3542L9.22917 7.39583C10.0903 7.07639 10.8889 7.24306 11.625 7.89583C12.3611 8.54861 12.5486 9.36806 12.1875 10.3542Z" fill="#D92D20"/>
</svg>
