<svg width="20" height="20" viewBox="0 0 20 20" fill="none" xmlns="http://www.w3.org/2000/svg">
<path d="M10 13.125C10.9861 13.125 11.8229 12.7812 12.5104 12.0937C13.1979 11.4062 13.5417 10.5694 13.5417 9.58333C13.5417 8.59722 13.1979 7.76042 12.5104 7.07292C11.8229 6.38542 10.9861 6.04167 10 6.04167C9.01391 6.04167 8.1771 6.38542 7.4896 7.07292C6.8021 7.76042 6.45835 8.59722 6.45835 9.58333C6.45835 10.5694 6.8021 11.4062 7.4896 12.0937C8.1771 12.7812 9.01391 13.125 10 13.125ZM10 11.9167C9.34724 11.9167 8.79516 11.691 8.34377 11.2396C7.89238 10.7882 7.66669 10.2361 7.66669 9.58333C7.66669 8.93055 7.89238 8.37847 8.34377 7.92708C8.79516 7.47569 9.34724 7.25 10 7.25C10.6528 7.25 11.2049 7.47569 11.6563 7.92708C12.1077 8.37847 12.3334 8.93055 12.3334 9.58333C12.3334 10.2361 12.1077 10.7882 11.6563 11.2396C11.2049 11.691 10.6528 11.9167 10 11.9167ZM10 15.8333C8.08335 15.8333 6.33683 15.3125 4.76044 14.2708C3.18405 13.2292 1.9653 11.8542 1.10419 10.1458C1.06252 10.0764 1.03127 9.99305 1.01044 9.89583C0.989604 9.79861 0.979187 9.69444 0.979187 9.58333C0.979187 9.47222 0.989604 9.36805 1.01044 9.27083C1.03127 9.17361 1.06252 9.09028 1.10419 9.02083C1.9653 7.3125 3.18405 5.9375 4.76044 4.89583C6.33683 3.85417 8.08335 3.33333 10 3.33333C11.9167 3.33333 13.6632 3.85417 15.2396 4.89583C16.816 5.9375 18.0347 7.3125 18.8959 9.02083C18.9375 9.09028 18.9688 9.17361 18.9896 9.27083C19.0104 9.36805 19.0209 9.47222 19.0209 9.58333C19.0209 9.69444 19.0104 9.79861 18.9896 9.89583C18.9688 9.99305 18.9375 10.0764 18.8959 10.1458C18.0347 11.8542 16.816 13.2292 15.2396 14.2708C13.6632 15.3125 11.9167 15.8333 10 15.8333Z" fill="#D92D20"/>
</svg>
